<?xml version="1.0" encoding="UTF-8"?>
<svg xmlns="http://www.w3.org/2000/svg" xmlns:xlink="http://www.w3.org/1999/xlink" width="699" height="216">
  <defs>
    <path id="a" d="M0 0h63.97v90.59H0z"></path>
    <path id="c" d="M0 216h697.805V0H0z"></path>
  </defs>
  <g fill="none" fill-rule="evenodd" transform="translate(.587)">
    <path fill="#FFF" d="M33.14 15.924H7.742V54.77H33.14c11.952 0 19.965-8.014 19.965-19.423 0-11.408-8.013-19.422-19.965-19.422ZM0 8.862h33.955c17.384 0 27.299 12.224 27.299 26.484 0 14.26-10.05 26.485-27.299 26.485H7.742v37.621H.001V8.862ZM146.68 56.398H89.23v43.055h-7.742V8.861h7.742v40.475h57.45V8.861h7.878v90.592h-7.878zM222.461 14.43c-22.002 0-35.856 16.706-35.856 39.795 0 22.818 13.854 39.794 35.856 39.794 21.73 0 35.856-16.976 35.856-39.794 0-23.09-14.125-39.795-35.856-39.795m0-7.062c26.485 0 44.005 20.373 44.005 46.857 0 26.485-17.52 46.857-44.005 46.857-26.62 0-44.005-20.372-44.005-46.857 0-26.484 17.385-46.857 44.005-46.857M308.701 15.924h-29.609V8.862h67.095v7.062h-29.609v83.528h-7.877z"></path>
    <path fill="#F49B04" d="M474.8 21.221v78.231h-7.742V8.861h7.877l56.772 77.146V8.861h7.742v90.591h-7.606z"></path>
    <g transform="translate(0 123.78)">
      <mask id="b" fill="#fff">
        <use xlink:href="#a"></use>
      </mask>
      <path fill="#FFF" d="M36.807 83.527c11.952 0 19.015-6.926 19.015-17.928 0-9.235-6.384-17.928-19.015-17.928H7.742v35.856h29.065Zm-.543-42.918c11.68 0 17.792-7.334 17.792-16.705 0-9.236-6.112-16.842-17.792-16.842H7.742V40.61h28.522ZM0 0h37.215c15.211 0 24.99 8.827 24.99 23.088 0 11.41-7.741 19.15-15.891 20.78 9.643 1.494 17.656 11.545 17.656 22.274 0 15.076-9.778 24.448-25.94 24.448H0V0Z" mask="url(#b)"></path>
    </g>
    <path fill="#FFF" d="M121.146 130.843H95.75v38.979h25.397c11.953 0 20.101-8.15 20.101-19.557 0-11.41-8.148-19.422-20.1-19.422Zm-5.432 46.042H95.749v37.485h-7.742v-90.59h33.818c15.62 0 27.571 9.914 27.571 26.485 0 16.434-11.68 25.533-25.126 26.077l26.213 38.028h-9.372l-25.397-37.485ZM213.906 129.348c-22.003 0-35.856 16.706-35.856 39.795 0 22.817 13.853 39.795 35.856 39.795 21.73 0 35.856-16.978 35.856-39.795 0-23.09-14.126-39.795-35.856-39.795m0-7.062c26.484 0 44.005 20.372 44.005 46.857 0 26.484-17.52 46.857-44.005 46.857-26.62 0-44.005-20.373-44.005-46.857 0-26.485 17.385-46.857 44.005-46.857M300.825 130.843h-29.609v-7.063h67.095v7.063h-29.608v83.527h-7.878zM426.996 171.316h-57.45v43.054h-7.743v-90.59h7.743v40.474h57.45V123.78h7.878v90.59h-7.878zM465.97 123.78h57.451v7.062h-49.709v33.548h48.758v7.062h-48.758v35.855h49.709v7.064H465.97zM584.4 130.843h-25.398v38.979H584.4c11.952 0 20.101-8.15 20.101-19.557 0-11.41-8.149-19.422-20.1-19.422Zm-5.432 46.042h-19.966v37.485h-7.741v-90.59h33.818c15.62 0 27.571 9.914 27.571 26.485 0 16.434-11.68 25.533-25.126 26.077l26.212 38.028h-9.37l-25.398-37.485ZM637.501 195.763c5.84 6.792 15.348 13.175 28.25 13.175 18.607 0 23.904-10.323 23.904-18.064 0-12.767-12.088-16.299-24.855-19.693-14.26-3.94-29.472-8.014-29.472-24.72 0-14.804 13.31-24.175 29.745-24.175 13.581 0 23.632 4.754 30.694 12.767l-5.161 5.704c-6.52-7.877-15.755-11.41-25.942-11.41-12.087 0-21.187 6.928-21.187 16.707 0 10.73 11.272 13.853 23.633 17.113 14.668 4.21 30.695 8.828 30.695 27.163 0 11.681-7.741 25.67-32.19 25.67-14.94 0-26.211-5.976-33.138-14.396l5.024-5.841Z"></path>
    <path fill="#F49B04" d="M415.996 9.185v7.52c14.159 5.313 22.797 19.464 22.797 37.52 0 22.817-14.125 39.794-35.856 39.794-22.002 0-35.856-16.977-35.856-39.794 0-18.102 8.518-32.275 22.797-37.556V9.17c-19.099 5.517-30.946 23.198-30.946 45.054 0 26.484 17.385 46.857 44.005 46.857 26.485 0 44.005-20.373 44.005-46.857 0-21.838-11.92-39.508-30.946-45.04"></path>
    <mask id="d" fill="#fff">
      <use xlink:href="#c"></use>
    </mask>
    <path fill="#F49B04" d="M398.584 31.341h8.706V0h-8.706zM560.554 6.965l-6.965 6.965v31.341l6.965 6.965h31.341l6.094-6.965V13.93l-6.964-6.965zM609.743 6.965l-6.965 6.965v31.341l6.965 6.965h31.341l6.094-6.965V13.93l-6.964-6.965zM658.931 6.965l-6.965 6.965v31.341l6.965 6.965h31.341l6.095-6.965V13.93l-6.965-6.965zM560.554 57.459l-6.965 6.965v31.341l6.965 6.965h31.341l6.094-6.965V64.424l-6.964-6.965zM609.743 57.459l-6.965 6.965v31.341l6.965 6.965h31.341l6.094-6.965V64.424l-6.964-6.965zM658.931 57.459l-6.965 6.965v31.341l6.965 6.965h31.341l6.095-6.965V64.424l-6.965-6.965z" mask="url(#d)"></path>
  </g>
</svg>
